<?xml version="1.0" encoding="UTF-8" standalone="no"?>
<svg
   xmlns:dc="http://purl.org/dc/elements/1.1/"
   xmlns:cc="http://creativecommons.org/ns#"
   xmlns:rdf="http://www.w3.org/1999/02/22-rdf-syntax-ns#"
   xmlns:svg="http://www.w3.org/2000/svg"
   xmlns="http://www.w3.org/2000/svg"
   xmlns:sodipodi="http://sodipodi.sourceforge.net/DTD/sodipodi-0.dtd"
   xmlns:inkscape="http://www.inkscape.org/namespaces/inkscape"
   width="100"
   height="100"
   viewBox="0 0 100 100"
   version="1.1"
   id="svg22"
   sodipodi:docname="identity.svg"
   inkscape:version="0.92.3 (2405546, 2018-03-11)">
  <metadata
     id="metadata28">
    <rdf:RDF>
      <cc:Work
         rdf:about="">
        <dc:format>image/svg+xml</dc:format>
        <dc:type
           rdf:resource="http://purl.org/dc/dcmitype/StillImage" />
      </cc:Work>
    </rdf:RDF>
  </metadata>
  <defs
     id="defs26" />
  <sodipodi:namedview
     pagecolor="#ffffff"
     bordercolor="#666666"
     borderopacity="1"
     objecttolerance="10"
     gridtolerance="10"
     guidetolerance="10"
     inkscape:pageopacity="0"
     inkscape:pageshadow="2"
     inkscape:window-width="1920"
     inkscape:window-height="1025"
     id="namedview24"
     showgrid="false"
     inkscape:zoom="2.36"
     inkscape:cx="0.63559322"
     inkscape:cy="46.529661"
     inkscape:window-x="0"
     inkscape:window-y="27"
     inkscape:window-maximized="1"
     inkscape:current-layer="svg22" />
  <path
     d="m 61.5,18.5 c 0,-4 -3.2,-7.2 -7.2,-7.2 h -8.6 c -4,0 -7.2,3.2 -7.2,7.2 v 5.3 h 23 z"
     id="path2"
     inkscape:connector-curvature="0" />
  <circle
     cx="29.5"
     cy="49"
     r="5.5999999"
     id="circle4" />
  <path
     d="M 87.8,27.6 H 12.2 c -5.3,0 -9.7,4.4 -9.7,9.7 v 41.6 c 0,5.3 4.4,9.7 9.7,9.7 h 75.6 c 5.3,0 9.7,-4.4 9.7,-9.7 V 37.3 c 0,-5.4 -4.4,-9.7 -9.7,-9.7 z m -58.3,50 c -3.4,0 -6.7,-0.5 -9.1,-1.5 -4.3,-1.8 -5,-4.5 -5,-5.9 0,-6.2 3.3,-11.5 8.1,-13.9 -2,-1.7 -3.3,-4.3 -3.3,-7.1 0,-5.1 4.2,-9.3 9.3,-9.3 5.1,0 9.3,4.2 9.3,9.3 0,2.8 -1.3,5.4 -3.3,7.1 4.8,2.5 8.1,7.8 8.1,13.9 0,5 -7.1,7.4 -14.1,7.4 z m 52.2,-3 H 55.5 c -1,0 -1.9,-0.8 -1.9,-1.9 0,-1 0.8,-1.9 1.9,-1.9 h 26.2 c 1,0 1.9,0.8 1.9,1.9 0,1.1 -0.9,1.9 -1.9,1.9 z M 81.7,60 H 55.5 c -1,0 -1.9,-0.8 -1.9,-1.9 0,-1.1 0.8,-1.9 1.9,-1.9 h 26.2 c 1,0 1.9,0.8 1.9,1.9 0,1.1 -0.9,1.9 -1.9,1.9 z m 0,-14.7 H 55.5 c -1,0 -1.9,-0.8 -1.9,-1.9 0,-1.1 0.8,-1.9 1.9,-1.9 h 26.2 c 1,0 1.9,0.8 1.9,1.9 0,1.1 -0.9,1.9 -1.9,1.9 z"
     id="path6"
     inkscape:connector-curvature="0" />
  <path
     d="m 29.5,58.3 c -5.7,0 -10.4,5.3 -10.4,11.7 0,2 4.7,3.8 10.4,3.8 5.7,0 10.4,-1.7 10.4,-3.8 0,-6.4 -4.7,-11.7 -10.4,-11.7 z"
     id="path8"
     inkscape:connector-curvature="0" />
</svg>
