<svg xmlns="http://www.w3.org/2000/svg" xmlns:xlink="http://www.w3.org/1999/xlink" width="100" height="100" viewBox="0 0 100 100"><g><g transform="translate(50 50) scale(0.69 0.69) rotate(0) translate(-50 -50)" style="fill:#000000"><svg fill="#000000" xmlns:x="http://ns.adobe.com/Extensibility/1.0/" xmlns:i="http://ns.adobe.com/AdobeIllustrator/10.0/" xmlns:graph="http://ns.adobe.com/Graphs/1.0/" xmlns="http://www.w3.org/2000/svg" xmlns:xlink="http://www.w3.org/1999/xlink" version="1.1" x="0px" y="0px" viewBox="0 0 100 100" style="enable-background:new 0 0 100 100;" xml:space="preserve"><g><g i:extraneous="self"><g><path d="M61.5,18.5c0-4-3.2-7.2-7.2-7.2h-8.6c-4,0-7.2,3.2-7.2,7.2v5.3h23V18.5z"></path><circle cx="29.5" cy="49" r="5.6"></circle><path d="M87.8,27.6H12.2c-5.3,0-9.7,4.4-9.7,9.7v41.6c0,5.3,4.4,9.7,9.7,9.7h75.6c5.3,0,9.7-4.4,9.7-9.7V37.3     C97.5,31.9,93.1,27.6,87.8,27.6z M29.5,77.6c-3.4,0-6.7-0.5-9.1-1.5c-4.3-1.8-5-4.5-5-5.9c0-6.2,3.3-11.5,8.1-13.9     c-2-1.7-3.3-4.3-3.3-7.1c0-5.1,4.2-9.3,9.3-9.3s9.3,4.2,9.3,9.3c0,2.8-1.3,5.4-3.3,7.1c4.8,2.5,8.1,7.8,8.1,13.9     C43.6,75.2,36.5,77.6,29.5,77.6z M81.7,74.6H55.5c-1,0-1.9-0.8-1.9-1.9c0-1,0.8-1.9,1.9-1.9h26.2c1,0,1.9,0.8,1.9,1.9     C83.6,73.8,82.7,74.6,81.7,74.6z M81.7,60H55.5c-1,0-1.9-0.8-1.9-1.9s0.8-1.9,1.9-1.9h26.2c1,0,1.9,0.8,1.9,1.9S82.7,60,81.7,60z      M81.7,45.3H55.5c-1,0-1.9-0.8-1.9-1.9s0.8-1.9,1.9-1.9h26.2c1,0,1.9,0.8,1.9,1.9S82.7,45.3,81.7,45.3z"></path><path d="M29.5,58.3c-5.7,0-10.4,5.3-10.4,11.7c0,2,4.7,3.8,10.4,3.8s10.4-1.7,10.4-3.8C39.9,63.6,35.2,58.3,29.5,58.3z"></path></g></g></g></svg></g></g></svg>