<?xml version="1.0" encoding="UTF-8" standalone="no"?>
<svg
   xmlns:dc="http://purl.org/dc/elements/1.1/"
   xmlns:cc="http://creativecommons.org/ns#"
   xmlns:rdf="http://www.w3.org/1999/02/22-rdf-syntax-ns#"
   xmlns:svg="http://www.w3.org/2000/svg"
   xmlns="http://www.w3.org/2000/svg"
   xmlns:sodipodi="http://sodipodi.sourceforge.net/DTD/sodipodi-0.dtd"
   xmlns:inkscape="http://www.inkscape.org/namespaces/inkscape"
   enable-background="new 0 0 32 32"
   version="1.1"
   viewBox="0 0 32 32"
   xml:space="preserve"
   id="svg13"
   sodipodi:docname="google.svg"
   inkscape:version="0.92.3 (2405546, 2018-03-11)"><metadata
     id="metadata19"><rdf:RDF><cc:Work
         rdf:about=""><dc:format>image/svg+xml</dc:format><dc:type
           rdf:resource="http://purl.org/dc/dcmitype/StillImage" /></cc:Work></rdf:RDF></metadata><defs
     id="defs17" /><sodipodi:namedview
     pagecolor="#ffffff"
     bordercolor="#666666"
     borderopacity="1"
     objecttolerance="10"
     gridtolerance="10"
     guidetolerance="10"
     inkscape:pageopacity="0"
     inkscape:pageshadow="2"
     inkscape:window-width="1920"
     inkscape:window-height="1025"
     id="namedview15"
     showgrid="false"
     inkscape:zoom="7.375"
     inkscape:cx="0.20338983"
     inkscape:cy="16"
     inkscape:window-x="0"
     inkscape:window-y="27"
     inkscape:window-maximized="1"
     inkscape:current-layer="svg13" /><path
     d="m 31.028077,13.067319 c 0.195257,1.045198 0.302457,2.140168 0.302457,3.284909 0,8.935872 -5.982134,15.291291 -15.017549,15.291291 C 7.6699983,31.643519 0.6694661,24.642987 0.6694661,16 c 0,-8.6429869 7.0005322,-15.64351914 15.6435189,-15.64351914 4.224822,0 7.752846,1.55439764 10.461556,4.07742244 l -4.410508,4.4105075 v -0.00957 c -1.642454,-1.563969 -3.725194,-2.3660535 -6.051048,-2.3660535 -5.162821,0 -9.3570141,4.3607357 -9.3570141,9.5235567 0,5.160906 4.1941931,9.533128 9.3570141,9.533128 4.682336,0 7.869617,-2.679996 8.526216,-6.355419 h -8.526216 v -6.100819 z"
     id="path8"
     inkscape:connector-curvature="0"
     style="stroke-width:1.9142828" /></svg>